<svg xmlns="http://www.w3.org/2000/svg" height="40px" viewBox="0 -960 960 960" width="40px" fill="#555"><path d="M193.85-221.54q55.94-53.97 128.58-85.86 72.64-31.88 157.5-31.88T637.5-307.4q72.71 31.89 128.65 85.86v-520q0-9.23-7.69-16.92-7.69-7.69-16.92-7.69H218.46q-9.23 0-16.92 7.69-7.69 7.69-7.69 16.92v520Zm286.71-209.38q50.06 0 84.75-34.7Q600-500.31 600-550.36t-34.69-84.74q-34.69-34.69-84.75-34.69-50.05 0-84.74 34.69t-34.69 84.74q0 50.05 34.69 84.74 34.69 34.7 84.74 34.7ZM218.46-160q-24.58 0-41.52-16.94Q160-193.88 160-218.46v-523.08q0-24.58 16.94-41.52Q193.88-800 218.46-800h523.08q24.58 0 41.52 16.94Q800-766.12 800-741.54v523.08q0 24.58-16.94 41.52Q766.12-160 741.54-160H218.46Zm-7.56-33.85h538.05q-63.69-58.59-130.94-85.09-67.24-26.5-138.27-26.5-69.48 0-137.32 26.5-67.83 26.5-131.52 85.09Zm269.92-270.92q-35.64 0-60.74-25.1-25.11-25.1-25.11-60.49 0-35.38 25.11-60.49 25.1-25.1 60.48-25.1 35.39 0 60.49 25.21t25.1 60.12q0 35.65-25.21 60.75-25.2 25.1-60.12 25.1Zm-.82-29.41Z"/></svg>